# xmcd
#
# Track frame offsets:
#	150
#	10991
#	26624
#	41716
#	55859
#	70783
#	85540
#	99106
#	111621
#	125349
#	140194
#	153948
#	168289
#	180605
#	193590
#	205101
#	219607
#	231366
#	245838
#	252241
#
# Disc length: 3547 seconds
#
# Revision: 0
# Processed by: cddbd v1.5.2PL0 Copyright (c) Steve Scherf et al.
# Submitted via: EasyCDDAExtractor 16.0.6.1
#
DISCID=1a0dd914
DTITLE=Λίντα Μαίρη - Τραγούδια 45 στροφές-Λίντα Μαίρη 2
DYEAR=2000
DGENRE=Λαϊκή
TTITLE0=Λίντα Μαίρη - Παρακαλώ τον ουρανό [1967, Ανδρ. Χατζηαποστόλου-Τ. Σωτήρ
TTITLE0=χος]
TTITLE1=Λίντα Μαίρη-Χιώτης Μανώλης - Η καπετάνισσα [1961, Λένας Ρουσσιάνου]
TTITLE2=Λίντα Μαίρη - Εσύ [1964, Μανώλης Χιώτης]
TTITLE3=Λίντα Μαίρη - Η μοναξιά [1967, Γιάννης Καραμπεσίνης]
TTITLE4=Λίντα Μαίρη - Να χαμηλώναν τα βουνά [1967, Γιώργος Ζαμπέτας-Πυθαγόρας]
TTITLE5=Λίντα Μαίρη-Χιώτης Μανώλης - Περίμενέ με αγάπη μου [1963, Μανώλης Χιώτ
TTITLE5=ης-Αλέκος Σακελλάριος]
TTITLE6=Λίντα Μαίρη - Δεν καθαρίσαμε [1967, Γιάννης Καραμπεσίνης]
TTITLE7=Λίντα Μαίρη-Χιώτης Μανώλης - Ο αλήτης [1962, Μανώλης Χιώτης]
TTITLE8=Λίντα Μαίρη-Χιώτης Μανώλης - Καθαρίσαμε [1961, Μανώλης Χιώτης]
TTITLE9=Λίντα Μαίρη - Του χωρισμού ο πόνος [1968, Γιάννης Καραμπεσίνης]
TTITLE10=Λίντα Μαίρη-Χιώτης Μανώλης - Πάρε τους όρκους σου (Όπως νομίζεις)[196
TTITLE10=3, Μανώλης Χιώτης]
TTITLE11=Λίντα Μαίρη - Καμάρι μου [1968, Γ. Ζαμπέτας-Πυθαγόρας/Χ. Βασιλειάδης]
TTITLE12=Λίντα Μαίρη-Χιώτης Μανώλης - Δικαιολογίες [1961, Μανώλης Χιώτης]
TTITLE13=Λίντα Μαίρη - Έκανα σφάλμα να σ' αγαπήσω [1967, Γιάννης Καραμπεσίνης]
TTITLE14=Λίντα Μαίρη-Χιώτης Μανώλης - Θέλω να φύγω [1965, Μανώλης Χιώτης]
TTITLE15=Λίντα Μαίρη-Χιώτης Μανώλης - Μην κλάψεις για μένα [1961, Μανώλης Χιώτ
TTITLE15=ης]
TTITLE16=Λίντα Μαίρη - Πήρε φωτιά η φούστα μου [1966, Γιάννης Καραμπεσίνης]
TTITLE17=Λίντα Μαίρη-Τρίο Μπελκάντο - Μήπως είν' η αγάπη [Μπάμπης Μπακάλης]
TTITLE18=Λίντα Μαίρη - Η τελευταία νύχτα [1949, Μανώλης Χιώτης-Χρ. Κολοκοτρώνη
TTITLE18=ς]
TTITLE19=Λίντα Μαίρη - Και το κουκούτσι μύγδαλο [1962, Μανώλης Χιώτης]
EXTD=
EXTT0=
EXTT1=
EXTT2=
EXTT3=
EXTT4=
EXTT5=
EXTT6=
EXTT7=
EXTT8=
EXTT9=
EXTT10=
EXTT11=
EXTT12=
EXTT13=
EXTT14=
EXTT15=
EXTT16=
EXTT17=
EXTT18=
EXTT19=
PLAYORDER=
